<!-- Weather icon for 里山パークおいらの森. Derived from Meteocons by Bas Milius (MIT). https://github.com/basmilius/meteocons -->
<svg viewBox="0 0 128 128" fill="none" xmlns="http://www.w3.org/2000/svg"><g transform="translate(2,4) scale(0.50)" vector-effect="non-scaling-stroke"><g id="clear-day">
<g id="Sun">
<circle id="Core" cx="64" cy="63.9999" r="18" stroke="currentColor" stroke-width="7.5"/>
<path id="Rays" fill-rule="evenodd" clip-rule="evenodd" d="M64 16C65.1046 16 66 16.8954 66 18V30C66 31.1046 65.1046 32 64 32C62.8954 32 62 31.1046 62 30V18C62 16.8954 62.8954 16 64 16ZM30.0589 30.0589C30.8399 29.2778 32.1062 29.2778 32.8873 30.0589L41.3726 38.5442C42.1536 39.3252 42.1536 40.5915 41.3726 41.3726C40.5915 42.1536 39.3252 42.1536 38.5441 41.3726L30.0589 32.8873C29.2778 32.1062 29.2778 30.8399 30.0589 30.0589ZM97.9411 30.0589C98.7222 30.8399 98.7222 32.1062 97.9411 32.8873L89.4558 41.3726C88.6748 42.1536 87.4085 42.1536 86.6274 41.3726C85.8464 40.5915 85.8464 39.3252 86.6274 38.5442L95.1127 30.0589C95.8937 29.2778 97.1601 29.2778 97.9411 30.0589ZM16 64C16 62.8954 16.8954 62 18 62H30C31.1046 62 32 62.8954 32 64C32 65.1046 31.1046 66 30 66H18C16.8954 66 16 65.1046 16 64ZM96 64C96 62.8954 96.8954 62 98 62H110C111.105 62 112 62.8954 112 64C112 65.1046 111.105 66 110 66H98C96.8954 66 96 65.1046 96 64ZM41.3726 86.6274C42.1536 87.4085 42.1536 88.6748 41.3726 89.4558L32.8873 97.9411C32.1062 98.7222 30.8399 98.7222 30.0589 97.9411C29.2778 97.1601 29.2778 95.8937 30.0589 95.1127L38.5441 86.6274C39.3252 85.8464 40.5915 85.8464 41.3726 86.6274ZM86.6274 86.6274C87.4085 85.8464 88.6748 85.8464 89.4558 86.6274L97.9411 95.1127C98.7222 95.8937 98.7222 97.1601 97.9411 97.9411C97.1601 98.7222 95.8937 98.7222 95.1127 97.9411L86.6274 89.4558C85.8464 88.6748 85.8464 87.4085 86.6274 86.6274ZM64 96C65.1046 96 66 96.8954 66 98V110C66 111.105 65.1046 112 64 112C62.8954 112 62 111.105 62 110V98C62 96.8954 62.8954 96 64 96Z" fill="currentColor"/>
</g>
</g></g><g transform="translate(60,62) scale(0.50)" vector-effect="non-scaling-stroke"><g id="overcast" clip-path="url(#clip0_2038_14016)">
<g id="Sky">
<g id="Clouds" clip-path="url(#clip1_2038_14016)">
<g id="Mask group">
<mask id="mask0_2038_14016" style="mask-type:alpha" maskUnits="userSpaceOnUse" x="0" y="0" width="128" height="128">
<g id="Cloud Mask">
<path id="Subtract" fill-rule="evenodd" clip-rule="evenodd" d="M128 0H0V128H128V0ZM37.9519 93H90.9752C100.227 93 107.998 85.353 107.998 76.0281C107.998 68.0217 102.305 61.3501 94.9248 59.5512C95.3619 49.9005 89.6744 40.6093 80.5509 36.7922C71.1071 32.8411 60.0664 35.6119 53.5305 43.2384C48.5702 41.5956 42.9815 42.2957 38.5741 45.2907C34.1459 48.2998 31.4305 53.2809 31.1846 58.5379C24.0633 61.463 19.3278 68.8506 20.0776 76.7839C20.942 85.9295 28.8285 93.0018 37.9519 93Z" fill="black"/>
</g>
</mask>
<g mask="url(#mask0_2038_14016)">
<g id="Secondary Cloud">
<path id="Cloud" d="M101.194 55.5696C102.367 51.0603 99.7602 46.4356 95.5043 44.7274C91.1919 42.9965 85.9612 44.4886 83.4186 48.4349C81.2648 47.1923 78.496 47.2622 76.4119 48.6208C74.3808 49.945 73.2434 52.3815 73.675 54.7869C70.2998 55.3987 67.6874 58.4746 68.0307 61.9597C68.3748 65.4526 71.5394 68.0008 74.9767 68C83.8126 68 92.6514 67.9924 101.488 68C104.911 68 108 65.2865 108 61.7777C108 58.1488 104.721 55.4219 101.194 55.5696Z" fill="currentColor"/>
</g>
</g>
</g>
<g id="Cloud_2">
<path id="Cloud_3" fill-rule="evenodd" clip-rule="evenodd" d="M54.8371 48.2115C51.0739 45.9483 46.3457 45.7826 42.4415 47.6664C41.8837 47.9355 41.3428 48.2465 40.8239 48.5991C36.6826 51.4133 34.4998 56.5151 35.3499 61.454C28.3907 62.7689 23.3936 69.3412 24.0614 76.4076C24.7293 83.474 30.8678 89.0011 37.9519 89C37.9516 89 37.9522 89 37.9519 89H90.9767C91.8608 89 92.7273 88.908 93.5669 88.7333C95.0531 88.4239 96.4547 87.855 97.7196 87.0774C99.3131 86.0979 100.689 84.787 101.744 83.2465C102.32 82.4049 102.801 81.4947 103.168 80.5324C103.705 79.125 104 77.6063 104 76.0281C104 75.9138 103.998 75.7997 103.995 75.6861C103.84 69.9006 99.7434 65.0366 94.3906 63.5447C93.1158 63.1894 91.7697 63.0253 90.3886 63.0856C90.7211 61.752 90.9017 60.4069 90.9409 59.0706C91.1716 51.1861 86.4764 43.6067 79.0085 40.4823C70.2648 36.824 59.8274 40.138 54.8371 48.2115ZM90.9767 84.9973C95.8649 84.9973 100 80.8788 100 76.0281C100 71.6531 96.6498 67.9178 92.4216 67.2003C92.1196 67.1491 91.8131 67.1132 91.503 67.0937C91.1929 67.0741 90.8793 67.0708 90.5629 67.0846L87.8866 67.2014C87.2562 67.229 86.6497 66.9571 86.2505 66.4681C85.8513 65.979 85.7062 65.3301 85.859 64.7174L86.5076 62.1165C86.6209 61.6622 86.7117 61.206 86.7808 60.7491C87.8172 53.8959 83.9585 46.8917 77.4656 44.1752C70.5246 41.2712 62.1884 43.9274 58.239 50.3171L57.2003 51.9975C57.2001 51.998 57.1998 51.9984 57.1995 51.9989C56.6234 52.9294 55.4069 53.2241 54.4692 52.6602L52.7767 51.6424C49.8116 49.8592 45.9319 49.9664 43.071 51.9105C42.7147 52.1526 42.3793 52.4199 42.0664 52.7088C39.8756 54.7312 38.7824 57.8152 39.2918 60.7745L39.6259 62.7154C39.626 62.7158 39.626 62.7162 39.6261 62.7166C39.8107 63.7928 39.0991 64.8185 38.0269 65.0216C38.0266 65.0217 38.0271 65.0216 38.0269 65.0216L36.092 65.3872C31.1413 66.3226 27.5724 71.0449 28.0437 76.0307C28.5152 81.0199 32.9092 84.9983 37.9519 84.9973H90.9767Z" fill="currentColor"/>
</g>
</g>
</g>
</g>
<defs>
<clipPath id="clip0_2038_14016">
<rect width="128" height="128" fill="white"/>
</clipPath>
<clipPath id="clip1_2038_14016">
<rect width="128" height="128" fill="white"/>
</clipPath>
</defs></g><path d="M52,84 L84,44" stroke="currentColor" stroke-width="7" stroke-linecap="round"/></svg>