<!-- Weather icon for 里山パークおいらの森. Derived from Meteocons by Bas Milius (MIT). https://github.com/basmilius/meteocons -->
<svg viewBox="0 0 128 128" fill="none" xmlns="http://www.w3.org/2000/svg"><g transform="translate(2,2) scale(0.80)" vector-effect="non-scaling-stroke"><g id="umbrella" clip-path="url(#clip0_2038_25587)">
<g id="Umbrella">
<path id="Umbrella Stick" d="M55 91.561C55 94.1393 56.365 97 59.5 97C62.635 97 64 94.1393 64 91.561V32" stroke="currentColor" stroke-width="3.0" stroke-linecap="round" stroke-linejoin="round"/>
<g id="Umbrella Top">
<path id="Vector" d="M53.4485 58.8122C60.3945 55.7114 67.5165 55.6715 74.5515 58.8122C75.0953 59.055 75.717 59.0645 76.2638 58.8284C76.7874 58.6023 77.3119 58.3861 77.8376 58.1811C80.2351 43.5616 64 32 64 32C64 32 47.7683 43.5592 50.1617 58.1765C50.6886 58.3837 51.2136 58.6014 51.7366 58.828C52.2831 59.0647 52.9047 59.055 53.4485 58.8122Z" fill="white"/>
<g id="Vector_2">
<path d="M99.9794 56.1633C97.9653 42.574 82.6317 32 64 32C64 32 80.2351 43.5616 77.8376 58.181C83.8754 55.8257 90.0517 54.9455 96.3721 57.5648L97.4007 58.0061C98.7278 58.5755 100.191 57.5942 99.9794 56.1633Z" fill="currentColor"/>
<path d="M64 32C45.3683 32 30.0347 42.5741 28.0206 56.1633C27.8085 57.5942 29.2722 58.5754 30.5993 58.0061L31.6279 57.5648C37.9597 54.822 44.1826 55.8249 50.1617 58.1765C47.7682 43.5592 64 32 64 32Z" fill="currentColor"/>
</g>
</g>
</g>
</g>
<defs>
<clipPath id="clip0_2038_25587">
<rect width="128" height="128" fill="white"/>
</clipPath>
</defs></g><g transform="translate(72,70) scale(0.44)" vector-effect="non-scaling-stroke"><g id="wind">
<g id="Wind">
<path id="Wind Line 1" d="M87.79 40.1352C93.9756 33.347 105 38.4049 105 47.4463C105 53.2746 100.522 58 95 58H24" stroke="currentColor" stroke-width="7.5" stroke-miterlimit="10" stroke-linecap="round"/>
<path id="Wind Line 1_2" d="M60.1281 87.868C66.4202 94.5186 78 89.8717 78 80.5556C78 74.7263 73.3503 70 67.6154 70C61.8805 70 24 70 24 70" stroke="currentColor" stroke-width="7.5" stroke-miterlimit="10" stroke-linecap="round"/>
</g>
</g></g></svg>