<!-- Weather icon for 里山パークおいらの森. Derived from Meteocons by Bas Milius (MIT). https://github.com/basmilius/meteocons -->
<svg viewBox="0 0 128 128" fill="none" xmlns="http://www.w3.org/2000/svg"><g transform="translate(2,2) scale(0.80)" vector-effect="non-scaling-stroke"><g id="snowman" clip-path="url(#clip0_2045_50458)">
<g id="Snowman">
<path id="Subtract" fill-rule="evenodd" clip-rule="evenodd" d="M52.4404 58.4651C50.6291 59.6616 49.0141 61.1311 47.654 62.8152C48.5429 63.3094 49.3037 64.0059 49.8742 64.8426C51.2802 63.0649 53.0147 61.5589 54.986 60.4162C54.0761 59.846 53.2239 59.192 52.4404 58.4651ZM73.014 60.4162C74.9853 61.5589 76.7198 63.0649 78.1258 64.8426C78.6963 64.0059 79.4571 63.3093 80.346 62.8152C78.9859 61.1311 77.3709 59.6616 75.5596 58.4651C74.7761 59.192 73.9239 59.846 73.014 60.4162ZM81.9617 74.8169C81.9871 75.208 82 75.6025 82 76C82 85.9411 73.9411 94 64 94C54.0589 94 46 85.9411 46 76C46 75.6025 46.0129 75.208 46.0383 74.8169C45.5451 74.9366 45.03 75 44.5 75C43.9951 75 43.5037 74.9424 43.0319 74.8335C43.0107 75.2197 43 75.6086 43 76C43 87.598 52.402 97 64 97C75.598 97 85 87.598 85 76C85 75.6086 84.9893 75.2197 84.9682 74.8335C84.4963 74.9424 84.0049 75 83.5 75C82.97 75 82.4549 74.9366 81.9617 74.8169Z" fill="currentColor"/>
<g id="Buttons">
<circle id="Top Button" cx="64" cy="69" r="1.5" fill="currentColor" stroke="currentColor"/>
<circle id="Middle Button" cx="64" cy="75" r="1.5" fill="currentColor" stroke="currentColor"/>
<circle id="Bottom Button" cx="64" cy="81" r="1.5" fill="currentColor" stroke="currentColor"/>
</g>
<g id="Arms">
<circle id="Right Arm" cx="83.5" cy="68.5" r="4.5" fill="currentColor"/>
<circle id="Left Arm" cx="44.5" cy="68.5" r="4.5" fill="currentColor"/>
</g>
<circle id="Head" cx="64" cy="46" r="13.5" stroke="currentColor" stroke-width="3.0" stroke-miterlimit="10"/>
<path id="Mouth" d="M59.5 51.5L60.3448 51.8754C62.6718 52.9097 65.3282 52.9097 67.6552 51.8754L68.5 51.5" stroke="currentColor" stroke-width="2.0" stroke-linecap="round"/>
<path id="Nose" d="M57.1563 48.9946C55.9733 49.0968 55.5359 47.7287 56.6215 47.3214L63.5617 45.0769C63.8408 44.9723 64.1415 44.9787 64.3982 45.0702C64.9316 45.2602 64.9273 45.9416 64.79 46.4909C64.6527 47.0403 64.7698 47.7266 64.3677 48.1253C64.2003 48.2912 63.959 48.4064 63.6765 48.4308L57.1563 48.9946Z" fill="currentColor"/>
<g id="Eyes">
<circle id="Left Eye" cx="59" cy="42" r="2" fill="currentColor"/>
<circle id="Right Eye" cx="69" cy="42" r="2" fill="currentColor"/>
</g>
<g id="Hat">
<path id="Hat Top" fill-rule="evenodd" clip-rule="evenodd" d="M71 24C71 22.8954 70.1046 22 69 22H59C57.8954 22 57 22.8954 57 24V31H71V24Z" fill="currentColor"/>
<path id="Hat Base" d="M53 31C51.8954 31 51 31.8954 51 33V35C51 36.1046 51.8954 37 53 37H75C76.1046 37 77 36.1046 77 35V33C77 31.8954 76.1046 31 75 31H71H57H53Z" fill="currentColor"/>
</g>
<g id="Shawl">
<rect id="Shawl Hanging" x="68" y="58" width="6" height="9" rx="2" fill="currentColor"/>
<path id="Shawl Base" d="M52 56.1805C52 55.5625 52.5549 55.0925 53.1644 55.1941L57.0952 55.8492C61.6669 56.6111 66.3331 56.6111 70.9048 55.8492L74.8356 55.1941C75.4451 55.0925 76 55.5625 76 56.1805V59.1529C76 59.6417 75.6466 60.0589 75.1644 60.1393L70.9048 60.8492C66.3331 61.6111 61.6669 61.6111 57.0952 60.8492L52.8356 60.1393C52.3534 60.0589 52 59.6417 52 59.1529V56.1805Z" fill="currentColor"/>
</g>
</g>
</g>
<defs>
<clipPath id="clip0_2045_50458">
<rect width="128" height="128" fill="white"/>
</clipPath>
</defs></g><g transform="translate(72,70) scale(0.44)" vector-effect="non-scaling-stroke"><g id="overcast" clip-path="url(#clip0_2038_14016)">
<g id="Sky">
<g id="Clouds" clip-path="url(#clip1_2038_14016)">
<g id="Mask group">
<mask id="mask0_2038_14016" style="mask-type:alpha" maskUnits="userSpaceOnUse" x="0" y="0" width="128" height="128">
<g id="Cloud Mask">
<path id="Subtract" fill-rule="evenodd" clip-rule="evenodd" d="M128 0H0V128H128V0ZM37.9519 93H90.9752C100.227 93 107.998 85.353 107.998 76.0281C107.998 68.0217 102.305 61.3501 94.9248 59.5512C95.3619 49.9005 89.6744 40.6093 80.5509 36.7922C71.1071 32.8411 60.0664 35.6119 53.5305 43.2384C48.5702 41.5956 42.9815 42.2957 38.5741 45.2907C34.1459 48.2998 31.4305 53.2809 31.1846 58.5379C24.0633 61.463 19.3278 68.8506 20.0776 76.7839C20.942 85.9295 28.8285 93.0018 37.9519 93Z" fill="black"/>
</g>
</mask>
<g mask="url(#mask0_2038_14016)">
<g id="Secondary Cloud">
<path id="Cloud" d="M101.194 55.5696C102.367 51.0603 99.7602 46.4356 95.5043 44.7274C91.1919 42.9965 85.9612 44.4886 83.4186 48.4349C81.2648 47.1923 78.496 47.2622 76.4119 48.6208C74.3808 49.945 73.2434 52.3815 73.675 54.7869C70.2998 55.3987 67.6874 58.4746 68.0307 61.9597C68.3748 65.4526 71.5394 68.0008 74.9767 68C83.8126 68 92.6514 67.9924 101.488 68C104.911 68 108 65.2865 108 61.7777C108 58.1488 104.721 55.4219 101.194 55.5696Z" fill="currentColor"/>
</g>
</g>
</g>
<g id="Cloud_2">
<path id="Cloud_3" fill-rule="evenodd" clip-rule="evenodd" d="M54.8371 48.2115C51.0739 45.9483 46.3457 45.7826 42.4415 47.6664C41.8837 47.9355 41.3428 48.2465 40.8239 48.5991C36.6826 51.4133 34.4998 56.5151 35.3499 61.454C28.3907 62.7689 23.3936 69.3412 24.0614 76.4076C24.7293 83.474 30.8678 89.0011 37.9519 89C37.9516 89 37.9522 89 37.9519 89H90.9767C91.8608 89 92.7273 88.908 93.5669 88.7333C95.0531 88.4239 96.4547 87.855 97.7196 87.0774C99.3131 86.0979 100.689 84.787 101.744 83.2465C102.32 82.4049 102.801 81.4947 103.168 80.5324C103.705 79.125 104 77.6063 104 76.0281C104 75.9138 103.998 75.7997 103.995 75.6861C103.84 69.9006 99.7434 65.0366 94.3906 63.5447C93.1158 63.1894 91.7697 63.0253 90.3886 63.0856C90.7211 61.752 90.9017 60.4069 90.9409 59.0706C91.1716 51.1861 86.4764 43.6067 79.0085 40.4823C70.2648 36.824 59.8274 40.138 54.8371 48.2115ZM90.9767 84.9973C95.8649 84.9973 100 80.8788 100 76.0281C100 71.6531 96.6498 67.9178 92.4216 67.2003C92.1196 67.1491 91.8131 67.1132 91.503 67.0937C91.1929 67.0741 90.8793 67.0708 90.5629 67.0846L87.8866 67.2014C87.2562 67.229 86.6497 66.9571 86.2505 66.4681C85.8513 65.979 85.7062 65.3301 85.859 64.7174L86.5076 62.1165C86.6209 61.6622 86.7117 61.206 86.7808 60.7491C87.8172 53.8959 83.9585 46.8917 77.4656 44.1752C70.5246 41.2712 62.1884 43.9274 58.239 50.3171L57.2003 51.9975C57.2001 51.998 57.1998 51.9984 57.1995 51.9989C56.6234 52.9294 55.4069 53.2241 54.4692 52.6602L52.7767 51.6424C49.8116 49.8592 45.9319 49.9664 43.071 51.9105C42.7147 52.1526 42.3793 52.4199 42.0664 52.7088C39.8756 54.7312 38.7824 57.8152 39.2918 60.7745L39.6259 62.7154C39.626 62.7158 39.626 62.7162 39.6261 62.7166C39.8107 63.7928 39.0991 64.8185 38.0269 65.0216C38.0266 65.0217 38.0271 65.0216 38.0269 65.0216L36.092 65.3872C31.1413 66.3226 27.5724 71.0449 28.0437 76.0307C28.5152 81.0199 32.9092 84.9983 37.9519 84.9973H90.9767Z" fill="currentColor"/>
</g>
</g>
</g>
</g>
<defs>
<clipPath id="clip0_2038_14016">
<rect width="128" height="128" fill="white"/>
</clipPath>
<clipPath id="clip1_2038_14016">
<rect width="128" height="128" fill="white"/>
</clipPath>
</defs></g></svg>