<!-- Weather icon for 里山パークおいらの森. Derived from Meteocons by Bas Milius (MIT). https://github.com/basmilius/meteocons -->
<svg viewBox="0 0 128 128" fill="none" xmlns="http://www.w3.org/2000/svg"><g transform="translate(2,2) scale(0.80)" vector-effect="non-scaling-stroke"><g id="umbrella" clip-path="url(#clip0_2038_25587)">
<g id="Umbrella">
<path id="Umbrella Stick" d="M55 91.561C55 94.1393 56.365 97 59.5 97C62.635 97 64 94.1393 64 91.561V32" stroke="currentColor" stroke-width="3.0" stroke-linecap="round" stroke-linejoin="round"/>
<g id="Umbrella Top">
<path id="Vector" d="M53.4485 58.8122C60.3945 55.7114 67.5165 55.6715 74.5515 58.8122C75.0953 59.055 75.717 59.0645 76.2638 58.8284C76.7874 58.6023 77.3119 58.3861 77.8376 58.1811C80.2351 43.5616 64 32 64 32C64 32 47.7683 43.5592 50.1617 58.1765C50.6886 58.3837 51.2136 58.6014 51.7366 58.828C52.2831 59.0647 52.9047 59.055 53.4485 58.8122Z" fill="white"/>
<g id="Vector_2">
<path d="M99.9794 56.1633C97.9653 42.574 82.6317 32 64 32C64 32 80.2351 43.5616 77.8376 58.181C83.8754 55.8257 90.0517 54.9455 96.3721 57.5648L97.4007 58.0061C98.7278 58.5755 100.191 57.5942 99.9794 56.1633Z" fill="currentColor"/>
<path d="M64 32C45.3683 32 30.0347 42.5741 28.0206 56.1633C27.8085 57.5942 29.2722 58.5754 30.5993 58.0061L31.6279 57.5648C37.9597 54.822 44.1826 55.8249 50.1617 58.1765C47.7682 43.5592 64 32 64 32Z" fill="currentColor"/>
</g>
</g>
</g>
</g>
<defs>
<clipPath id="clip0_2038_25587">
<rect width="128" height="128" fill="white"/>
</clipPath>
</defs></g><g transform="translate(72,70) scale(0.44)" vector-effect="non-scaling-stroke"><g id="snowman" clip-path="url(#clip0_2045_50458)">
<g id="Snowman">
<path id="Subtract" fill-rule="evenodd" clip-rule="evenodd" d="M52.4404 58.4651C50.6291 59.6616 49.0141 61.1311 47.654 62.8152C48.5429 63.3094 49.3037 64.0059 49.8742 64.8426C51.2802 63.0649 53.0147 61.5589 54.986 60.4162C54.0761 59.846 53.2239 59.192 52.4404 58.4651ZM73.014 60.4162C74.9853 61.5589 76.7198 63.0649 78.1258 64.8426C78.6963 64.0059 79.4571 63.3093 80.346 62.8152C78.9859 61.1311 77.3709 59.6616 75.5596 58.4651C74.7761 59.192 73.9239 59.846 73.014 60.4162ZM81.9617 74.8169C81.9871 75.208 82 75.6025 82 76C82 85.9411 73.9411 94 64 94C54.0589 94 46 85.9411 46 76C46 75.6025 46.0129 75.208 46.0383 74.8169C45.5451 74.9366 45.03 75 44.5 75C43.9951 75 43.5037 74.9424 43.0319 74.8335C43.0107 75.2197 43 75.6086 43 76C43 87.598 52.402 97 64 97C75.598 97 85 87.598 85 76C85 75.6086 84.9893 75.2197 84.9682 74.8335C84.4963 74.9424 84.0049 75 83.5 75C82.97 75 82.4549 74.9366 81.9617 74.8169Z" fill="currentColor"/>
<g id="Buttons">
<circle id="Top Button" cx="64" cy="69" r="1.5" fill="currentColor" stroke="currentColor"/>
<circle id="Middle Button" cx="64" cy="75" r="1.5" fill="currentColor" stroke="currentColor"/>
<circle id="Bottom Button" cx="64" cy="81" r="1.5" fill="currentColor" stroke="currentColor"/>
</g>
<g id="Arms">
<circle id="Right Arm" cx="83.5" cy="68.5" r="4.5" fill="currentColor"/>
<circle id="Left Arm" cx="44.5" cy="68.5" r="4.5" fill="currentColor"/>
</g>
<circle id="Head" cx="64" cy="46" r="13.5" stroke="currentColor" stroke-width="3.0" stroke-miterlimit="10"/>
<path id="Mouth" d="M59.5 51.5L60.3448 51.8754C62.6718 52.9097 65.3282 52.9097 67.6552 51.8754L68.5 51.5" stroke="currentColor" stroke-width="2.0" stroke-linecap="round"/>
<path id="Nose" d="M57.1563 48.9946C55.9733 49.0968 55.5359 47.7287 56.6215 47.3214L63.5617 45.0769C63.8408 44.9723 64.1415 44.9787 64.3982 45.0702C64.9316 45.2602 64.9273 45.9416 64.79 46.4909C64.6527 47.0403 64.7698 47.7266 64.3677 48.1253C64.2003 48.2912 63.959 48.4064 63.6765 48.4308L57.1563 48.9946Z" fill="currentColor"/>
<g id="Eyes">
<circle id="Left Eye" cx="59" cy="42" r="2" fill="currentColor"/>
<circle id="Right Eye" cx="69" cy="42" r="2" fill="currentColor"/>
</g>
<g id="Hat">
<path id="Hat Top" fill-rule="evenodd" clip-rule="evenodd" d="M71 24C71 22.8954 70.1046 22 69 22H59C57.8954 22 57 22.8954 57 24V31H71V24Z" fill="currentColor"/>
<path id="Hat Base" d="M53 31C51.8954 31 51 31.8954 51 33V35C51 36.1046 51.8954 37 53 37H75C76.1046 37 77 36.1046 77 35V33C77 31.8954 76.1046 31 75 31H71H57H53Z" fill="currentColor"/>
</g>
<g id="Shawl">
<rect id="Shawl Hanging" x="68" y="58" width="6" height="9" rx="2" fill="currentColor"/>
<path id="Shawl Base" d="M52 56.1805C52 55.5625 52.5549 55.0925 53.1644 55.1941L57.0952 55.8492C61.6669 56.6111 66.3331 56.6111 70.9048 55.8492L74.8356 55.1941C75.4451 55.0925 76 55.5625 76 56.1805V59.1529C76 59.6417 75.6466 60.0589 75.1644 60.1393L70.9048 60.8492C66.3331 61.6111 61.6669 61.6111 57.0952 60.8492L52.8356 60.1393C52.3534 60.0589 52 59.6417 52 59.1529V56.1805Z" fill="currentColor"/>
</g>
</g>
</g>
<defs>
<clipPath id="clip0_2045_50458">
<rect width="128" height="128" fill="white"/>
</clipPath>
</defs></g></svg>