<!-- Weather icon for 里山パークおいらの森. Derived from Meteocons by Bas Milius (MIT). https://github.com/basmilius/meteocons -->
<svg viewBox="0 0 128 128" fill="none" xmlns="http://www.w3.org/2000/svg"><g transform="translate(2,4) scale(0.50)" vector-effect="non-scaling-stroke"><g id="clear-day">
<g id="Sun">
<circle id="Core" cx="64" cy="63.9999" r="18" stroke="currentColor" stroke-width="7.5"/>
<path id="Rays" fill-rule="evenodd" clip-rule="evenodd" d="M64 16C65.1046 16 66 16.8954 66 18V30C66 31.1046 65.1046 32 64 32C62.8954 32 62 31.1046 62 30V18C62 16.8954 62.8954 16 64 16ZM30.0589 30.0589C30.8399 29.2778 32.1062 29.2778 32.8873 30.0589L41.3726 38.5442C42.1536 39.3252 42.1536 40.5915 41.3726 41.3726C40.5915 42.1536 39.3252 42.1536 38.5441 41.3726L30.0589 32.8873C29.2778 32.1062 29.2778 30.8399 30.0589 30.0589ZM97.9411 30.0589C98.7222 30.8399 98.7222 32.1062 97.9411 32.8873L89.4558 41.3726C88.6748 42.1536 87.4085 42.1536 86.6274 41.3726C85.8464 40.5915 85.8464 39.3252 86.6274 38.5442L95.1127 30.0589C95.8937 29.2778 97.1601 29.2778 97.9411 30.0589ZM16 64C16 62.8954 16.8954 62 18 62H30C31.1046 62 32 62.8954 32 64C32 65.1046 31.1046 66 30 66H18C16.8954 66 16 65.1046 16 64ZM96 64C96 62.8954 96.8954 62 98 62H110C111.105 62 112 62.8954 112 64C112 65.1046 111.105 66 110 66H98C96.8954 66 96 65.1046 96 64ZM41.3726 86.6274C42.1536 87.4085 42.1536 88.6748 41.3726 89.4558L32.8873 97.9411C32.1062 98.7222 30.8399 98.7222 30.0589 97.9411C29.2778 97.1601 29.2778 95.8937 30.0589 95.1127L38.5441 86.6274C39.3252 85.8464 40.5915 85.8464 41.3726 86.6274ZM86.6274 86.6274C87.4085 85.8464 88.6748 85.8464 89.4558 86.6274L97.9411 95.1127C98.7222 95.8937 98.7222 97.1601 97.9411 97.9411C97.1601 98.7222 95.8937 98.7222 95.1127 97.9411L86.6274 89.4558C85.8464 88.6748 85.8464 87.4085 86.6274 86.6274ZM64 96C65.1046 96 66 96.8954 66 98V110C66 111.105 65.1046 112 64 112C62.8954 112 62 111.105 62 110V98C62 96.8954 62.8954 96 64 96Z" fill="currentColor"/>
</g>
</g></g><g transform="translate(60,62) scale(0.50)" vector-effect="non-scaling-stroke"><g id="snowman" clip-path="url(#clip0_2045_50458)">
<g id="Snowman">
<path id="Subtract" fill-rule="evenodd" clip-rule="evenodd" d="M52.4404 58.4651C50.6291 59.6616 49.0141 61.1311 47.654 62.8152C48.5429 63.3094 49.3037 64.0059 49.8742 64.8426C51.2802 63.0649 53.0147 61.5589 54.986 60.4162C54.0761 59.846 53.2239 59.192 52.4404 58.4651ZM73.014 60.4162C74.9853 61.5589 76.7198 63.0649 78.1258 64.8426C78.6963 64.0059 79.4571 63.3093 80.346 62.8152C78.9859 61.1311 77.3709 59.6616 75.5596 58.4651C74.7761 59.192 73.9239 59.846 73.014 60.4162ZM81.9617 74.8169C81.9871 75.208 82 75.6025 82 76C82 85.9411 73.9411 94 64 94C54.0589 94 46 85.9411 46 76C46 75.6025 46.0129 75.208 46.0383 74.8169C45.5451 74.9366 45.03 75 44.5 75C43.9951 75 43.5037 74.9424 43.0319 74.8335C43.0107 75.2197 43 75.6086 43 76C43 87.598 52.402 97 64 97C75.598 97 85 87.598 85 76C85 75.6086 84.9893 75.2197 84.9682 74.8335C84.4963 74.9424 84.0049 75 83.5 75C82.97 75 82.4549 74.9366 81.9617 74.8169Z" fill="currentColor"/>
<g id="Buttons">
<circle id="Top Button" cx="64" cy="69" r="1.5" fill="currentColor" stroke="currentColor"/>
<circle id="Middle Button" cx="64" cy="75" r="1.5" fill="currentColor" stroke="currentColor"/>
<circle id="Bottom Button" cx="64" cy="81" r="1.5" fill="currentColor" stroke="currentColor"/>
</g>
<g id="Arms">
<circle id="Right Arm" cx="83.5" cy="68.5" r="4.5" fill="currentColor"/>
<circle id="Left Arm" cx="44.5" cy="68.5" r="4.5" fill="currentColor"/>
</g>
<circle id="Head" cx="64" cy="46" r="13.5" stroke="currentColor" stroke-width="3.0" stroke-miterlimit="10"/>
<path id="Mouth" d="M59.5 51.5L60.3448 51.8754C62.6718 52.9097 65.3282 52.9097 67.6552 51.8754L68.5 51.5" stroke="currentColor" stroke-width="2.0" stroke-linecap="round"/>
<path id="Nose" d="M57.1563 48.9946C55.9733 49.0968 55.5359 47.7287 56.6215 47.3214L63.5617 45.0769C63.8408 44.9723 64.1415 44.9787 64.3982 45.0702C64.9316 45.2602 64.9273 45.9416 64.79 46.4909C64.6527 47.0403 64.7698 47.7266 64.3677 48.1253C64.2003 48.2912 63.959 48.4064 63.6765 48.4308L57.1563 48.9946Z" fill="currentColor"/>
<g id="Eyes">
<circle id="Left Eye" cx="59" cy="42" r="2" fill="currentColor"/>
<circle id="Right Eye" cx="69" cy="42" r="2" fill="currentColor"/>
</g>
<g id="Hat">
<path id="Hat Top" fill-rule="evenodd" clip-rule="evenodd" d="M71 24C71 22.8954 70.1046 22 69 22H59C57.8954 22 57 22.8954 57 24V31H71V24Z" fill="currentColor"/>
<path id="Hat Base" d="M53 31C51.8954 31 51 31.8954 51 33V35C51 36.1046 51.8954 37 53 37H75C76.1046 37 77 36.1046 77 35V33C77 31.8954 76.1046 31 75 31H71H57H53Z" fill="currentColor"/>
</g>
<g id="Shawl">
<rect id="Shawl Hanging" x="68" y="58" width="6" height="9" rx="2" fill="currentColor"/>
<path id="Shawl Base" d="M52 56.1805C52 55.5625 52.5549 55.0925 53.1644 55.1941L57.0952 55.8492C61.6669 56.6111 66.3331 56.6111 70.9048 55.8492L74.8356 55.1941C75.4451 55.0925 76 55.5625 76 56.1805V59.1529C76 59.6417 75.6466 60.0589 75.1644 60.1393L70.9048 60.8492C66.3331 61.6111 61.6669 61.6111 57.0952 60.8492L52.8356 60.1393C52.3534 60.0589 52 59.6417 52 59.1529V56.1805Z" fill="currentColor"/>
</g>
</g>
</g>
<defs>
<clipPath id="clip0_2045_50458">
<rect width="128" height="128" fill="white"/>
</clipPath>
</defs></g><path d="M52,84 L84,44" stroke="currentColor" stroke-width="7" stroke-linecap="round"/></svg>